# xmcd
#
# Track frame offsets:
# 150
# 13650
# 30675
# 54150
# 69228
# 85053
# 98328
# 114455
# 129680
# 140630
# 154808
#
# Disc length: 2261 seconds
#
#
# Revision: 5
# Processed by: cddbd v1.4PL0 Copyright (c) Steve Scherf et al.
# Submitted via: FreeRIP 2.21 
#
DISCID=8408d30b
DTITLE=Ezequiel Pena - Yo Vendo Unos Ojos Verdes
DYEAR=1994
DGENRE=Other
TTITLE0=Yo Vendo Unos Ojos Verdes
TTITLE1=Boton De Rosa
TTITLE2=Manuel Juarez
TTITLE3=De Buena Gana
TTITLE4=Tu Castigo
TTITLE5=Mujeres
TTITLE6=Prenda De Mi Alma
TTITLE7=La Madrugada
TTITLE8=Ven Y Ven
TTITLE9=Potro Bandido
TTITLE10=Prefiero Partir
EXTD=
EXTT0=
EXTT1=
EXTT2=
EXTT3=
EXTT4=
EXTT5=
EXTT6=
EXTT7=
EXTT8=
EXTT9=
EXTT10=
PLAYORDER=
